# xmcd CD database file
#
# Track frame offsets:
#	150
#	36614
#	58229
#	81590
#	101196
#	127903
#	154420
#	186473
#
# Disc length: 2888 seconds
#
# Revision: 0
# Processed by: cddbd v1.5.2PL0 Copyright (c) Steve Scherf et al.
# Submitted via: CDex 1.81
#
DISCID=7b0b4608
DTITLE=Andy Sheppard Quartet - Romaria
DYEAR=2018
DGENRE=Jazz
TTITLE0=And A Day....
TTITLE1=Thirteen
TTITLE2=Romaria
TTITLE3=Pop
TTITLE4=They Came From The North
TTITLE5=With Every Flower That Falls
TTITLE6=All Becomes Again
TTITLE7=Forever...
EXTD=YEAR: 2018
EXTT0=
EXTT1=
EXTT2=
EXTT3=
EXTT4=
EXTT5=
EXTT6=
EXTT7=
PLAYORDER=
